<?xml version="1.0" standalone="no"?>
<!DOCTYPE svg PUBLIC "-//W3C//DTD SVG 20010904//EN"
 "http://www.w3.org/TR/2001/REC-SVG-20010904/DTD/svg10.dtd">
<svg version="1.0" xmlns="http://www.w3.org/2000/svg"
 width="512.000000pt" height="231.000000pt" viewBox="0 0 512.000000 231.000000"
 preserveAspectRatio="xMidYMid meet">

<g transform="translate(0.000000,231.000000) scale(0.100000,-0.100000)"
fill="#ff0000" stroke="none">
<path d="M860 2299 c0 -9 -76 -39 -96 -39 -11 0 -15 6 -11 20 3 11 1 20 -4 20
-5 0 -9 -7 -9 -14 0 -24 -59 -62 -140 -90 -126 -45 -289 -154 -395 -265 -51
-53 -28 -53 36 1 84 71 76 32 -16 -69 -26 -29 -44 -53 -41 -53 4 0 36 25 71
55 57 48 113 85 130 85 3 0 5 -7 5 -16 0 -19 -1 -20 85 38 76 50 115 66 115
48 0 -25 -53 -165 -140 -375 -108 -258 -166 -407 -262 -680 -125 -356 -187
-545 -177 -545 16 0 89 50 89 61 0 5 4 8 9 5 5 -4 2 -24 -7 -47 -13 -35 -14
-42 -1 -54 13 -13 21 -9 65 29 82 72 101 105 144 246 47 158 83 240 105 240 8
0 68 -42 133 -94 65 -52 156 -119 202 -150 47 -31 151 -101 231 -156 138 -94
267 -174 520 -320 62 -36 153 -89 203 -117 50 -29 97 -53 106 -53 12 1 12 3
-2 11 -29 16 -21 29 17 29 38 0 48 19 15 27 -25 7 -26 27 -2 51 21 21 53 21
107 -2 21 -9 46 -15 53 -14 8 2 -63 45 -158 97 -253 137 -435 245 -705 419
-301 194 -445 304 -573 434 l-53 55 80 11 c174 25 476 176 680 340 66 54 81
59 61 23 -6 -12 -8 -21 -6 -21 5 0 95 114 162 203 48 65 76 149 81 252 5 79 3
97 -17 144 -26 59 -80 108 -183 165 -111 61 -144 68 -334 70 -95 0 -173 -2
-173 -5z m281 -243 c102 -22 142 -34 177 -56 36 -22 40 -44 15 -72 -9 -11 -11
-18 -5 -18 7 0 12 -15 12 -32 0 -60 -21 -110 -65 -157 -44 -47 -66 -51 -45 -9
7 12 -22 -14 -64 -59 -104 -111 -221 -181 -413 -249 -38 -13 -53 -23 -53 -36
0 -11 -11 -23 -26 -28 -40 -16 -116 -31 -122 -26 -6 7 118 315 165 409 19 38
48 110 64 160 31 94 57 145 93 179 19 18 30 19 111 14 50 -4 120 -13 156 -20z
m369 14 c0 -5 -4 -10 -10 -10 -5 0 -10 5 -10 10 0 6 5 10 10 10 6 0 10 -4 10
-10z m-842 -62 c-2 -6 -10 -14 -16 -16 -7 -2 -10 2 -6 12 7 18 28 22 22 4z
m22 -126 c0 -15 -28 -47 -35 -40 -8 8 13 48 25 48 6 0 10 -4 10 -8z m731 -85
c-8 -8 -11 -7 -11 4 0 9 3 19 7 23 4 4 9 2 11 -4 3 -7 -1 -17 -7 -23z m-627
-471 c-43 -32 -254 -79 -254 -57 0 5 55 23 123 40 67 18 127 34 132 35 19 6
19 -4 -1 -18z m-134 -95 c0 -10 -7 -13 -88 -31 -50 -11 -74 -9 -59 7 9 8 97
31 125 32 12 1 22 -3 22 -8z m235 -575 c48 -27 97 -76 76 -76 -16 0 -134 84
-139 99 -5 16 -2 15 63 -23z m208 -152 c19 -7 23 -24 6 -24 -17 0 -49 20 -49
31 0 6 6 8 13 5 6 -3 20 -9 30 -12z m580 -315 c94 -47 109 -58 101 -70 -7 -11
-155 65 -180 92 -24 27 -14 24 79 -22z"/>
<path d="M2635 1994 c-187 -33 -390 -107 -517 -189 -431 -278 -628 -553 -645
-900 -8 -169 23 -279 103 -359 85 -85 181 -104 329 -65 172 45 284 110 403
233 68 71 89 102 144 212 36 71 70 144 76 162 10 29 32 37 32 11 0 -22 173
-402 223 -489 30 -52 60 -111 67 -132 11 -30 19 -37 47 -40 27 -3 32 -1 28 11
-8 19 -8 20 -6 44 2 27 17 20 41 -19 25 -39 37 -40 19 -2 -10 23 1 51 104 269
145 307 234 505 308 685 65 160 118 270 160 331 l29 42 245 0 c135 0 245 -1
245 -3 0 -3 -42 -34 -92 -69 -209 -146 -343 -288 -430 -453 -145 -276 -142
-596 8 -734 89 -82 172 -98 317 -60 169 43 288 110 402 226 82 84 118 140 190
302 113 252 158 467 122 571 -7 19 -18 36 -25 39 -9 3 -10 -2 -3 -20 13 -35
-15 -188 -35 -188 -3 0 -3 19 0 43 4 29 3 36 -3 21 -5 -11 -14 -55 -21 -98
-15 -102 -71 -266 -91 -266 -4 0 -1 26 7 58 7 31 13 84 13 117 -1 59 -1 60
-10 20 -17 -70 -32 -68 -25 4 3 35 4 62 2 60 -2 -2 -16 -59 -30 -126 -29 -141
-49 -191 -110 -277 -78 -110 -214 -219 -338 -274 -60 -26 -98 -17 -161 38 -62
55 -82 109 -74 200 10 122 116 350 223 481 50 62 249 257 285 280 25 15 141
57 234 84 85 24 100 26 315 24 217 -1 350 7 367 24 18 19 -31 35 -110 36 -92
1 -137 23 -69 34 25 4 54 27 34 27 -7 0 -12 5 -12 10 0 6 16 10 35 10 19 0 35
5 35 10 0 6 -17 10 -38 10 -23 0 -51 9 -74 25 -32 21 -48 25 -116 25 -43 0
-127 -7 -185 -15 -77 -11 -186 -15 -385 -14 -191 1 -285 -2 -300 -10 -25 -13
-292 -15 -292 -2 0 5 8 12 18 14 9 3 -3 5 -28 5 -36 0 -40 -2 -20 -8 53 -16
-11 -22 -172 -16 -215 7 -337 17 -344 28 -10 15 -51 8 -69 -12 -24 -27 -47
-25 -83 5 -27 23 -38 25 -123 24 -52 0 -130 -7 -174 -15z m328 -43 c46 -11 49
-13 41 -34 -4 -11 -13 -15 -28 -12 -14 4 -25 -1 -33 -14 -25 -39 -8 -48 100
-56 56 -4 107 -11 113 -16 6 -5 56 -12 110 -15 55 -3 105 -7 112 -10 9 -2 -2
-32 -34 -96 -96 -192 -290 -613 -409 -890 -23 -53 -32 -65 -41 -55 -19 20
-141 249 -216 406 l-70 146 13 105 c10 87 9 113 -2 154 -17 59 -41 76 -32 22
6 -41 -14 -163 -30 -173 -7 -4 -8 10 -4 42 10 67 0 52 -16 -26 l-13 -64 -23
40 c-20 37 -22 38 -16 10 3 -16 8 -38 11 -48 5 -14 1 -18 -12 -15 -11 2 -21
15 -25 33 -5 24 -7 20 -8 -21 -1 -53 -17 -114 -31 -114 -4 0 -5 24 -3 53 3 45
0 40 -16 -34 -32 -147 -51 -201 -95 -269 -87 -132 -185 -219 -330 -292 l-79
-40 -42 17 c-51 19 -112 76 -131 121 -37 89 -7 232 88 418 63 122 132 208 278
350 130 126 172 149 397 212 74 21 131 40 126 41 -6 2 -29 -1 -52 -6 -30 -7
-41 -6 -38 2 4 14 33 21 217 52 l145 24 -102 -3 c-57 -2 -103 0 -103 4 0 6
101 41 155 53 34 8 88 7 128 -2z m-293 -19 c0 -16 -74 -38 -105 -31 -34 7 -24
13 45 27 61 13 60 13 60 4z m423 -9 c-13 -2 -33 -2 -45 0 -13 2 -3 4 22 4 25
0 35 -2 23 -4z m-1094 -250 c-8 -10 -23 -24 -34 -32 -11 -8 -77 -71 -147 -140
-71 -69 -128 -121 -128 -117 0 29 199 235 280 289 32 22 46 22 29 0z m1972 -2
c-6 -10 -23 -26 -38 -36 -15 -10 -82 -71 -147 -137 -66 -65 -121 -116 -124
-113 -11 10 166 200 246 263 58 46 79 53 63 23z m-1952 -149 c-123 -127 -218
-266 -269 -391 -38 -94 -56 -116 -33 -39 38 130 113 277 178 347 49 54 167
153 174 146 3 -3 -20 -31 -50 -63z m1990 21 c-137 -144 -220 -263 -280 -401
-24 -56 -45 -98 -47 -92 -12 36 114 308 177 382 39 46 171 158 186 158 5 0
-11 -21 -36 -47z m-2240 -145 c-21 -40 -128 -196 -139 -203 -5 -3 -10 -4 -10
0 0 17 64 128 99 173 43 53 72 71 50 30z m1965 -10 c-14 -27 -59 -95 -126
-192 -4 -6 -10 -7 -13 -4 -11 11 56 127 103 179 24 27 46 49 48 49 3 0 -3 -15
-12 -32z m-1154 -14 c-6 -14 -10 -36 -10 -50 0 -13 -4 -24 -10 -24 -5 0 -10 8
-10 17 0 24 23 83 32 83 4 0 3 -12 -2 -26z m1961 -61 c-29 -111 -57 -188 -63
-177 -7 11 33 172 56 228 26 62 30 35 7 -51z m-2861 43 c0 -3 -4 -8 -10 -11
-5 -3 -10 -1 -10 4 0 6 5 11 10 11 6 0 10 -2 10 -4z m1970 0 c0 -3 -4 -8 -10
-11 -5 -3 -10 -1 -10 4 0 6 5 11 10 11 6 0 10 -2 10 -4z m-1166 -63 c15 -44
15 -49 -5 -104 -23 -62 -55 -104 -45 -58 21 90 26 119 26 162 0 26 2 47 4 47
2 0 11 -21 20 -47z m-891 -100 c-44 -138 -64 -423 -36 -522 4 -16 3 -22 -4
-18 -15 9 -31 83 -43 195 -12 106 0 173 51 308 17 43 33 87 36 97 3 9 9 17 13
17 4 0 -3 -35 -17 -77z m1042 -11 c15 -40 24 -76 21 -79 -8 -9 -66 122 -66
149 0 34 14 11 45 -70z m929 3 c-14 -44 -30 -120 -35 -170 -13 -121 -13 -304
0 -337 6 -16 7 -28 2 -28 -25 0 -56 186 -49 298 3 45 16 109 31 152 56 164 99
235 51 85z m-387 -7 c-3 -7 -5 -2 -5 12 0 14 2 19 5 13 2 -7 2 -19 0 -25z
m-668 -42 c-9 -8 -10 -5 -5 14 3 14 6 32 7 40 1 8 4 2 6 -14 3 -16 -1 -34 -8
-40z m651 0 c0 -11 -105 -256 -135 -317 -63 -123 -48 -68 26 102 39 90 76 176
82 192 9 22 27 38 27 23z m-1460 -140 c0 -3 -4 -8 -10 -11 -5 -3 -10 -1 -10 4
0 6 5 11 10 11 6 0 10 -2 10 -4z m1970 -6 c0 -5 -5 -10 -11 -10 -5 0 -7 5 -4
10 3 6 8 10 11 10 2 0 4 -4 4 -10z m-2053 -127 c-1 -71 2 -148 7 -173 6 -33 5
-42 -3 -34 -19 17 -43 155 -37 209 5 50 24 125 31 125 2 0 3 -57 2 -127z m753
97 c-6 -12 -14 -19 -17 -17 -2 3 1 15 7 27 6 12 14 19 17 17 2 -3 -1 -15 -7
-27z m1220 -34 c-7 -68 -5 -165 5 -230 10 -66 -8 -53 -23 16 -22 107 -23 134
-7 206 19 84 34 88 25 8z m750 28 c-18 -21 -24 -10 -9 18 8 14 14 18 17 10 2
-7 -2 -19 -8 -28z m-2080 -90 c0 -9 -99 -116 -121 -132 -40 -28 -17 12 43 74
56 58 78 75 78 58z m1934 -50 c-52 -61 -94 -97 -102 -89 -7 7 128 145 141 145
5 0 -13 -25 -39 -56z m-1934 -99 c-36 -36 -69 -65 -74 -65 -6 0 21 31 59 70
38 38 71 67 74 64 3 -2 -24 -34 -59 -69z m1965 -3 l-68 -67 64 72 c35 39 66
70 68 67 3 -3 -26 -35 -64 -72z m-2490 -77 l30 -25 -32 0 c-32 0 -63 28 -63
58 0 15 19 6 65 -33z m1970 1 l30 -25 -32 -1 c-32 0 -63 28 -63 58 0 15 20 6
65 -32z m-1795 -56 c-20 -13 -113 -13 -105 0 3 6 32 10 63 10 41 0 53 -3 42
-10z m1970 0 c-20 -13 -100 -13 -100 0 0 6 26 10 58 10 40 0 53 -3 42 -10z
m-2150 -20 c34 -18 34 -19 9 -20 -14 0 -34 9 -44 20 -23 25 -10 25 35 0z
m1964 5 c20 -8 36 -17 36 -20 0 -13 -40 -3 -61 15 -29 24 -23 25 25 5z"/>
<path d="M3257 1993 c18 -2 50 -2 70 0 21 2 7 4 -32 4 -38 0 -55 -2 -38 -4z"/>
<path d="M3713 1983 c9 -2 25 -2 35 0 9 3 1 5 -18 5 -19 0 -27 -2 -17 -5z"/>
<path d="M4423 1385 c0 -22 2 -30 4 -17 2 12 2 30 0 40 -3 9 -5 -1 -4 -23z"/>
<path d="M2030 90 c0 -5 7 -10 16 -10 8 0 12 5 9 10 -3 6 -10 10 -16 10 -5 0
-9 -4 -9 -10z"/>
</g>
</svg>
