<svg width="273" height="48" viewBox="0 0 1456 256" fill="none" xmlns="http://www.w3.org/2000/svg" xmlns:xlink="http://www.w3.org/1999/xlink" version="1.1">
        <!-- lua -->
        <g transform="translate(0, 0)">
          <svg xmlns="http://www.w3.org/2000/svg" width="256" height="256" fill="none" viewBox="0 0 256 256"><rect width="256" height="256" fill="#242938" rx="60"/><g clip-path="url(#clip0_101_404)"><path fill="navy" d="M204.453 128.02C204.453 85.8242 170.195 51.5703 128 51.5703C85.8047 51.5703 51.5469 85.8242 51.5469 128.02C51.5469 170.219 85.8047 204.473 128 204.473C170.195 204.473 204.453 170.219 204.453 128.02Z"/><path fill="#fff" d="M182.066 96.3438C182.066 83.9883 172.035 73.957 159.68 73.957C147.324 73.957 137.293 83.9883 137.293 96.3438C137.293 108.695 147.324 118.73 159.68 118.73C172.035 118.73 182.066 108.695 182.066 96.3438Z"/><path fill="navy" d="M226.84 51.5469C226.84 39.1914 216.809 29.1602 204.453 29.1602C192.098 29.1602 182.066 39.1914 182.066 51.5469C182.066 63.9023 192.098 73.9336 204.453 73.9336C216.809 73.9336 226.84 63.9258 226.84 51.5469Z"/><path fill="#fff" d="M82.5078 160.586H107.281V166.227H76.1094V116.066H82.5078V160.586Z"/><path fill="#fff" d="M136.871 166.227V161.199C133.492 165.953 130.133 167.809 124.832 167.809C117.82 167.809 113.344 163.965 113.344 157.969V130.176H119.047V155.707C119.047 160.039 121.937 162.805 126.48 162.805C132.457 162.805 136.32 157.988 136.32 150.617V130.176H142.023V166.227H136.871Z"/><path fill="#fff" d="M183.945 167.199C182.086 167.684 181.199 167.809 180.016 167.809C176.301 167.809 174.504 166.164 174.102 162.508C170.047 166.227 166.395 167.809 161.855 167.809C154.566 167.809 150.027 163.691 150.027 157.145C150.027 152.457 152.16 149.227 156.363 147.516C158.559 146.629 159.805 146.352 167.914 145.316C172.457 144.77 173.891 143.734 173.891 141.328V139.805C173.891 136.363 171 134.441 165.848 134.441C160.48 134.441 157.863 136.426 157.379 140.84H151.59C151.738 137.27 152.414 135.203 154.062 133.344C156.469 130.66 160.797 129.141 166.035 129.141C174.906 129.141 179.594 132.582 179.594 138.98V160.188C179.594 161.98 180.691 163.016 182.699 163.016C183.035 163.016 183.313 163.016 183.945 162.867V167.199ZM173.891 148.402C171.969 149.289 170.723 149.562 164.664 150.387C158.539 151.273 155.984 153.215 155.984 156.996C155.984 160.652 158.602 162.785 163.078 162.785C166.457 162.785 169.266 161.684 171.613 159.551C173.32 157.969 173.891 156.809 173.891 154.863V148.402Z"/><path stroke="gray" stroke-dasharray="8.63 8.63" stroke-miterlimit="10" stroke-width="2.294" d="M216.09 83.121C223.164 97.0195 226.859 112.394 226.859 128C226.859 182.574 182.574 226.859 128 226.859C73.4257 226.859 29.1406 182.574 29.1406 128C29.1406 73.4257 73.4257 29.1406 128 29.1406C145.551 29.1406 162.762 33.8086 177.883 42.6367"/></g><defs><clipPath id="clip0_101_404"><rect width="200" height="200" fill="#fff" transform="translate(28 28)"/></clipPath></defs></svg>
        </g>
        <!-- git -->
        <g transform="translate(300, 0)">
          <svg xmlns="http://www.w3.org/2000/svg" width="256" height="256" fill="none" viewBox="0 0 256 256"><rect width="256" height="256" fill="#F03C2E" rx="60"/><g clip-path="url(#clip0_7_283)"><path fill="#fff" d="M224.225 119.094L136.906 31.775C135.711 30.5787 134.291 29.6298 132.729 28.9824C131.166 28.3349 129.491 28.0017 127.8 28.0017C126.109 28.0017 124.434 28.3349 122.871 28.9824C121.309 29.6298 119.889 30.5787 118.694 31.775L100.569 49.9L123.569 72.9C128.919 71.025 135.044 72.3062 139.306 76.5687C141.335 78.6014 142.752 81.1638 143.394 83.9632C144.036 86.7626 143.878 89.6862 142.937 92.4L165.106 114.569C170.469 112.719 176.656 113.912 180.937 118.206C182.361 119.63 183.49 121.32 184.26 123.18C185.03 125.04 185.426 127.033 185.426 129.046C185.425 131.059 185.029 133.052 184.258 134.912C183.487 136.771 182.358 138.461 180.934 139.884C179.511 141.308 177.821 142.436 175.961 143.206C174.101 143.977 172.108 144.373 170.095 144.372C168.082 144.372 166.088 143.975 164.229 143.205C162.369 142.434 160.679 141.305 159.256 139.881C154.756 135.381 153.644 128.756 155.919 123.212L135.244 102.537V156.944C136.745 157.686 138.116 158.666 139.306 159.844C140.729 161.267 141.858 162.956 142.629 164.816C143.399 166.675 143.795 168.668 143.795 170.681C143.795 172.694 143.399 174.687 142.629 176.546C141.858 178.406 140.729 180.096 139.306 181.519C137.883 182.942 136.193 184.071 134.334 184.841C132.474 185.611 130.481 186.008 128.469 186.008C126.456 186.008 124.463 185.611 122.604 184.841C120.744 184.071 119.054 182.942 117.631 181.519C116.206 180.096 115.076 178.407 114.305 176.548C113.533 174.688 113.136 172.694 113.136 170.681C113.136 168.668 113.533 166.675 114.305 164.815C115.076 162.955 116.206 161.266 117.631 159.844C119.112 158.369 120.756 157.25 122.65 156.5V101.587C120.825 100.837 119.112 99.7312 117.631 98.2437C115.479 96.0943 114.016 93.3526 113.428 90.3684C112.841 87.3841 113.155 84.2924 114.331 81.4875L91.6437 58.8125L31.7687 118.625C30.5716 119.821 29.6219 121.241 28.9739 122.804C28.3259 124.367 27.9924 126.042 27.9924 127.734C27.9924 129.426 28.3259 131.102 28.9739 132.665C29.6219 134.228 30.5716 135.648 31.7687 136.844L119.094 224.156C120.289 225.352 121.709 226.301 123.271 226.949C124.834 227.596 126.509 227.929 128.2 227.929C129.891 227.929 131.566 227.596 133.129 226.949C134.691 226.301 136.111 225.352 137.306 224.156L224.225 137.375C225.422 136.179 226.372 134.759 227.02 133.196C227.668 131.633 228.001 129.958 228.001 128.266C228.001 126.574 227.668 124.898 227.02 123.335C226.372 121.772 225.422 120.352 224.225 119.156"/></g><defs><clipPath id="clip0_7_283"><rect width="200" height="200" fill="#fff" transform="translate(28 28)"/></clipPath></defs></svg>
        </g>
        <!-- github -->
        <g transform="translate(600, 0)">
          <svg width="256" height="256" viewBox="0 0 256 256" fill="none" xmlns="http://www.w3.org/2000/svg">
<rect width="256" height="256" rx="60" fill="#242938"/>
<path d="M128.001 30C72.7791 30 28 74.7708 28 130.001C28 174.184 56.6533 211.668 96.3867 224.891C101.384 225.817 103.219 222.722 103.219 220.081C103.219 217.696 103.126 209.819 103.083 201.463C75.2631 207.512 69.3927 189.664 69.3927 189.664C64.8437 178.105 58.2894 175.032 58.2894 175.032C49.2163 168.825 58.9733 168.953 58.9733 168.953C69.0151 169.658 74.3026 179.258 74.3026 179.258C83.2217 194.546 97.6965 190.126 103.403 187.571C104.301 181.107 106.892 176.696 109.752 174.199C87.5405 171.67 64.1913 163.095 64.1913 124.778C64.1913 113.86 68.0977 104.939 74.4947 97.9362C73.4564 95.4175 70.0335 85.2465 75.4635 71.4722C75.4635 71.4722 83.8609 68.7845 102.971 81.7226C110.948 79.5069 119.502 78.3958 128.001 78.3577C136.499 78.3958 145.061 79.5069 153.052 81.7226C172.139 68.7845 180.525 71.4722 180.525 71.4722C185.968 85.2465 182.544 95.4175 181.505 97.9362C187.917 104.939 191.797 113.86 191.797 124.778C191.797 163.187 168.403 171.644 146.135 174.119C149.722 177.223 152.918 183.308 152.918 192.638C152.918 206.018 152.802 216.787 152.802 220.081C152.802 222.742 154.602 225.86 159.671 224.878C199.383 211.64 228 174.169 228 130.001C228 74.7708 183.227 30 128.001 30ZM65.4536 172.453C65.2333 172.95 64.4517 173.099 63.7396 172.758C63.0143 172.432 62.6069 171.754 62.8421 171.256C63.0574 170.744 63.8406 170.602 64.5643 170.945C65.2913 171.271 65.7053 171.955 65.4536 172.453ZM70.3725 176.842C69.8956 177.285 68.9633 177.079 68.3307 176.38C67.6766 175.683 67.554 174.751 68.0376 174.302C68.5294 173.86 69.4336 174.067 70.0893 174.764C70.7434 175.47 70.8709 176.395 70.3725 176.842ZM73.7471 182.458C73.1344 182.884 72.1325 182.485 71.5132 181.595C70.9004 180.706 70.9004 179.64 71.5264 179.212C72.1474 178.785 73.1344 179.169 73.762 180.052C74.373 180.956 74.373 182.023 73.7471 182.458ZM79.4542 188.962C78.9061 189.566 77.7386 189.404 76.8841 188.579C76.0098 187.773 75.7663 186.629 76.3161 186.024C76.8709 185.418 78.045 185.589 78.9061 186.407C79.7738 187.211 80.0387 188.364 79.4542 188.962ZM86.8301 191.157C86.5883 191.941 85.4639 192.297 84.3312 191.964C83.2002 191.621 82.46 190.704 82.6885 189.912C82.9237 189.124 84.053 188.753 85.194 189.109C86.3234 189.45 87.0652 190.361 86.8301 191.157ZM95.2242 192.089C95.2523 192.913 94.2919 193.597 93.1029 193.612C91.9073 193.639 90.9402 192.971 90.9269 192.16C90.9269 191.327 91.8659 190.65 93.0615 190.63C94.2505 190.607 95.2242 191.269 95.2242 192.089ZM103.47 191.773C103.613 192.577 102.787 193.404 101.606 193.624C100.445 193.836 99.3702 193.339 99.2229 192.541C99.0788 191.716 99.92 190.89 101.079 190.676C102.262 190.471 103.32 190.955 103.47 191.773Z" fill="white"/>
</svg></g>
        <!-- vs code -->
        <g transform="translate(900, 0)">
          <svg xmlns="http://www.w3.org/2000/svg" width="256" height="256" fill="none" viewBox="0 0 256 256"><rect width="256" height="256" fill="#242938" rx="60"/><path fill="#2489CA" d="M33.7158 100.208C33.7158 100.208 28.9814 96.795 34.6627 92.2381L47.8994 80.402C47.8994 80.402 51.6869 76.4172 55.6915 79.8891L177.84 172.368V216.714C177.84 216.714 177.781 223.678 168.844 222.908L33.7158 100.208Z"/><path fill="#1070B3" d="M65.1997 128.792L33.7157 157.415C33.7157 157.415 30.4805 159.822 33.7157 164.123L48.3333 177.418C48.3333 177.418 51.8052 181.147 56.9341 176.905L90.3119 151.596L65.1997 128.792Z"/><path fill="#0877B9" d="M120.474 129.029L178.215 84.9391L177.84 40.83C177.84 40.83 175.374 31.2033 167.148 36.2139L90.312 106.145L120.474 129.029Z"/><path fill="#3C99D4" d="M168.844 222.968C172.198 226.4 176.262 225.276 176.262 225.276L221.259 203.103C227.019 199.177 226.21 194.305 226.21 194.305V61.8982C226.21 56.0788 220.252 54.0667 220.252 54.0667L181.253 35.267C172.731 30 167.148 36.2139 167.148 36.2139C167.148 36.2139 174.328 31.0455 177.84 40.83V215.905C177.84 217.109 177.583 218.292 177.071 219.358C176.045 221.429 173.816 223.362 168.47 222.553L168.844 222.968Z"/></svg>
        </g>
         
<g transform="translate(1200, 0)">
  <svg xmlns="http://www.w3.org/2000/svg" width="256" height="256" fill="none" viewBox="0 0 256 256">
    <rect width="256" height="256" fill="#F03C2E" rx="60"/>
    <g transform="translate(128, 128) scale(0.5) scale(1, -1) translate(-128, -180)">
      <path fill="#ffffff" d="M93 304 c-38 -16 -57 -40 -25 -32 12 4 22 5 22 4 0 -1 -18 -49 -39 -106 -22 -58 -37 -108 -34 -113 8 -12 33 13 33 34 0 32 18 31 67 -4 88 -62 143 -91 143 -74 0 9 -24 29 -53 46 -30 17 -71 44 -91 60 l-37 30 49 21 c53 23 86 52 96 85 15 52 -60 81 -131 49z m105 -28 c12 -12 -13 -45 -51 -66 -23 -13 -45 -28 -48 -33 -4 -5 -9 -5 -11 -1 -3 5 6 33 19 63 23 51 25 53 55 47 17 -3 33 -8 36 -10z"/>
    </g>
  </svg>
</g>
        
  </svg>