<svg role="img" viewBox="0 0 256 256" xmlns="http://www.w3.org/2000/svg" id="itchio" height="256" width="256">
  <path d="M33.38666666666666 14.272C22.186666666666667 20.906666666666666 0.21333333333333332 46.165333333333336 0 52.8v10.986666666666666c0 13.898666666666665 13.013333333333332 26.133333333333333 24.8 26.133333333333333 14.186666666666667 0 25.983999999999998 -11.754666666666667 25.983999999999998 -25.706666666666667 0 13.952 11.413333333333334 25.706666666666667 25.599999999999998 25.706666666666667 14.165333333333333 0 25.194666666666667 -11.754666666666667 25.194666666666667 -25.706666666666667 0 13.952 12.128 25.706666666666667 26.304000000000002 25.706666666666667h0.256c14.186666666666667 0 26.304000000000002 -11.754666666666667 26.304000000000002 -25.706666666666667 0 13.952 11.029333333333334 25.706666666666667 25.205333333333332 25.706666666666667 14.186666666666667 0 25.599999999999998 -11.754666666666667 25.599999999999998 -25.706666666666667 0 13.952 11.797333333333334 25.706666666666667 25.973333333333333 25.706666666666667C242.98666666666668 89.91999999999999 256 77.67466666666667 256 63.78666666666667V52.8c-0.21333333333333332 -6.613333333333333 -22.208 -31.893333333333334 -33.38666666666666 -38.528 -34.69866666666667 -1.216 -58.751999999999995 -1.4293333333333333 -94.61333333333332 -1.4186666666666667 -35.861333333333334 0 -84.74666666666667 0.5653333333333332 -94.61333333333332 1.4186666666666667zm68.01066666666667 69.088a29.226666666666667 29.226666666666667 0 0 1 -4.992 6.421333333333333c-5.333333333333333 5.226666666666667 -12.693333333333332 8.48 -20.768 8.48a29.717333333333332 29.717333333333332 0 0 1 -20.799999999999997 -8.48c-1.9413333333333331 -1.8986666666666665 -3.413333333333333 -3.9466666666666663 -4.757333333333333 -6.293333333333333 -1.3546666666666667 2.368 -3.2319999999999998 4.394666666666666 -5.183999999999999 6.293333333333333a29.738666666666663 29.738666666666663 0 0 1 -20.799999999999997 8.48c-0.9813333333333333 0 -1.9946666666666666 -0.26666666666666666 -2.816 -0.5546666666666666 -1.1413333333333333 11.872 -1.6213333333333333 23.21066666666667 -1.792 31.46666666666667v0.05333333333333333l-0.064 12.448c0.21333333333333332 24.896 -2.453333333333333 80.68266666666666 10.986666666666666 94.39999999999999 20.82133333333333 4.842666666666666 59.14666666666666 7.061333333333334 97.6 7.072 38.45333333333333 0 76.77866666666667 -2.2399999999999998 97.6 -7.082666666666666 13.44 -13.696 10.773333333333333 -69.48266666666666 10.986666666666666 -94.37866666666667l-0.064 -12.448v-0.042666666666666665c-0.17066666666666666 -8.266666666666666 -0.6399999999999999 -19.605333333333334 -1.792 -31.46666666666667 -0.8213333333333332 0.2773333333333333 -1.8346666666666664 0.5546666666666666 -2.8053333333333335 0.5546666666666666a29.738666666666663 29.738666666666663 0 0 1 -20.799999999999997 -8.48c-1.9626666666666666 -1.8986666666666665 -3.84 -3.925333333333333 -5.183999999999999 -6.293333333333333 -1.3546666666666667 2.3466666666666667 -2.8266666666666667 4.394666666666666 -4.768 6.293333333333333a29.717333333333332 29.717333333333332 0 0 1 -20.799999999999997 8.469333333333333c-8.106666666666666 0 -15.424 -3.2319999999999998 -20.778666666666666 -8.458666666666666a29.226666666666667 29.226666666666667 0 0 1 -4.992 -6.421333333333333 29.205333333333332 29.205333333333332 0 0 1 -4.938666666666666 6.421333333333333 29.727999999999998 29.727999999999998 0 0 1 -20.799999999999997 8.469333333333333h-1.7066666666666666a29.727999999999998 29.727999999999998 0 0 1 -20.799999999999997 -8.458666666666666 29.205333333333332 29.205333333333332 0 0 1 -4.949333333333334 -6.421333333333333zm-21.375999999999998 27.626666666666665v0.021333333333333333c8.48 0.021333333333333333 16 0 25.312 10.165333333333333 7.328 -0.7679999999999999 14.997333333333332 -1.152 22.666666666666664 -1.1413333333333333 7.68 0 15.338666666666665 0.37333333333333335 22.666666666666664 1.1413333333333333 9.312 -10.165333333333333 16.832 -10.133333333333333 25.301333333333332 -10.165333333333333 4.010666666666666 0 20.010666666666665 0 31.146666666666665 31.296l11.978666666666665 42.96533333333333c8.874666666666666 31.946666666666665 -2.8373333333333335 32.72533333333333 -17.450666666666663 32.74666666666666 -21.65333333333333 -0.7999999999999999 -33.664 -16.53333333333333 -33.664 -32.266666666666666 -11.989333333333335 1.9626666666666666 -25.983999999999998 2.944 -39.97866666666667 2.9546666666666668 -13.994666666666667 0 -27.989333333333335 -0.992 -39.97866666666667 -2.9546666666666668 0 15.733333333333334 -12 31.46666666666667 -33.664 32.27733333333333 -14.613333333333333 -0.042666666666666665 -26.325333333333333 -0.8213333333333332 -17.450666666666663 -32.768l11.968 -42.95466666666667c11.146666666666665 -31.296 27.146666666666665 -31.296 31.146666666666665 -31.296zM128 135.61599999999999c-0.021333333333333333 0.021333333333333333 -22.826666666666668 20.949333333333332 -26.912 28.394666666666666l14.933333333333332 -0.5973333333333333v13.013333333333332c0 0.5973333333333333 5.973333333333334 0.352 11.978666666666665 0.07466666666666666 5.994666666666667 0.2773333333333333 11.989333333333335 0.5333333333333333 11.989333333333335 -0.08533333333333333v-13.013333333333332l14.933333333333332 0.5866666666666667C150.80533333333332 156.55466666666666 128 135.6053333333333 128 135.6053333333333z" fill="#ffffff" stroke-width="10.6667"></path>
</svg>