<svg viewBox="0 0 256 256" fill="none" xmlns="http://www.w3.org/2000/svg" id="youtube" height="256" width="256">
  <path d="M245.33333333333331 103.57311999999999c0.5269333333333333 -15.267626666666667 -2.811733333333333 -30.421120000000002 -9.706666666666667 -44.05333333333333 -4.6784 -5.5935999999999995 -11.171199999999999 -9.368426666666666 -18.346666666666664 -10.666666666666666 -29.68 -2.6930133333333335 -59.48266666666667 -3.7967999999999997 -89.27999999999999 -3.3066666666666666 -29.689173333333333 -0.5124266666666666 -59.38453333333334 0.5557333333333333 -88.96 3.1999999999999997 -5.847253333333333 1.06368 -11.25856 3.8064 -15.573333333333332 7.893333333333333 -9.6 8.853333333333332 -10.666666666666666 24 -11.733333333333334 36.8C10.185685333333332 116.45333333333333 10.185685333333332 139.54559999999998 11.733333333333334 162.56c0.3085866666666667 7.204266666666666 1.3812266666666666 14.3552 3.1999999999999997 21.333333333333332 1.28608 5.386666666666667 3.8882133333333333 10.3712 7.573333333333332 14.506666666666668 4.344106666666667 4.302933333333333 9.881386666666666 7.202133333333333 15.893333333333333 8.32 22.99637333333333 2.8384 46.16757333333334 4.0149333333333335 69.33333333333333 3.52 37.33333333333333 0.5333333333333333 70.08 0 108.79999999999998 -2.986666666666667 6.16 -1.0495999999999999 11.852799999999998 -3.952 16.32 -8.32 2.986666666666667 -2.9877333333333334 5.217066666666666 -6.644266666666667 6.506666666666666 -10.666666666666666 3.8143999999999996 -11.705599999999999 5.688533333333333 -23.956266666666664 5.546666666666667 -36.266666666666666 0.42666666666666664 -5.973333333333334 0.42666666666666664 -42.026666666666664 0.42666666666666664 -48.42688ZM103.89333333333333 158.39999999999998V92.37311999999999L167.04 125.54666666666665c-17.706666666666663 9.813333333333333 -41.06666666666666 20.906666666666666 -63.14666666666666 32.85333333333333Z" fill="#ffffff" stroke-width="10.6667"></path>
</svg>